<?xml version="1.0" encoding="UTF-8"?>
<svg width="120px" height="37px" viewBox="0 0 120 37" version="1.1" xmlns="http://www.w3.org/2000/svg" xmlns:xlink="http://www.w3.org/1999/xlink">
    <!-- Generator: Sketch 52.6 (67491) - http://www.bohemiancoding.com/sketch -->
    <title>hz-logo</title>
    <desc>Created with Sketch.</desc>
    <g id="v3" stroke="none" stroke-width="1" fill="none" fill-rule="evenodd">
        <g id="longform" transform="translate(-240.000000, -840.000000)" fill="#000000">
            <g id="nav" transform="translate(240.000000, 840.000000)">
                <path d="M16.7847461,4.05640158 L16.7847461,2.99022979 L29.1505194,2.99022979 L29.1505194,4.05640158 C25.875589,4.41264123 25.4749559,4.66735804 25.4749559,8.82069756 L25.4749559,29.6077725 C25.4749559,33.6621363 25.875589,34.0169205 29.0533632,34.3713407 L29.0533632,35.4371486 L16.6359187,35.4371486 L16.6359187,34.3713407 C19.8660917,34.0667722 20.26345,33.6621363 20.26345,29.6572603 L20.26345,19.1174426 L8.94092389,19.1174426 L8.94092389,29.6572603 C8.94092389,33.7603843 9.33682659,34.0667722 12.4134418,34.3713407 L12.4134418,35.4371486 L0.149555155,35.4371486 L0.149555155,34.3713407 C3.28002474,34.0667722 3.72323199,33.7105325 3.72323199,29.6572603 L3.72323199,8.82069756 C3.72323199,4.66735804 3.28002474,4.36169787 5.68434189e-14,4.05640158 L5.68434189e-14,2.99022979 L12.3122828,2.99022979 L12.3122828,4.05640158 C9.33682659,4.36169787 8.94092389,4.66735804 8.94092389,8.82069756 L8.94092389,17.291487 L20.26345,17.291487 L20.26345,8.82069756 C20.26345,4.66735804 19.813329,4.41264123 16.7847461,4.05640158 Z M41.0384804,31.7877845 L41.0384804,23.4250678 C40.1447883,23.9778032 38.7540345,24.6870076 37.8599785,25.2477485 C36.4204647,26.1567236 35.7247239,26.9740007 35.7247239,28.8472609 C35.7247239,31.3332969 37.4116769,32.8030129 38.7540345,32.8030129 C39.5993305,32.8030129 40.4435347,32.398741 41.0384804,31.7877845 Z M47.4475192,32.7546167 C48.0410094,32.7546167 48.5391627,32.5970562 48.9357932,32.398741 L49.2832997,33.4634572 L44.7631679,36.0481051 C43.8691119,36.0481051 42.8793552,35.5939814 42.3801103,35.0325128 C41.7342212,34.4204647 41.4387497,33.7603843 41.2371595,33.1592526 C39.7976457,34.2727289 37.5652348,36.0481051 36.3193057,36.0481051 C32.7932973,36.0481051 30.5619781,32.8528647 30.5619781,30.0124083 C30.5619781,27.6839328 31.5557375,26.1567236 33.8856685,25.1982606 C36.0729582,24.2838273 39.998872,22.9138147 41.0384804,21.9076834 L41.0384804,19.6687226 C41.0384804,16.425086 39.7001255,14.8076342 37.9611375,14.8076342 C37.1682405,14.8076342 36.5703837,15.1118389 36.024562,15.8716227 C35.5275003,16.6314066 35.1781744,17.6469989 34.879428,19.1662027 C34.6818405,20.133035 34.2328112,20.5373069 33.4886742,20.5373069 C32.3973946,20.5373069 30.8603606,19.6203264 30.8603606,18.4569983 C30.8603606,17.6964867 31.4021796,17.0371341 32.4461547,16.2766225 C34.0876226,15.0619872 36.9662864,13.2873388 39.6513655,12.7757218 C41.486782,12.7757218 42.8793552,13.4350745 43.9218747,14.352055 C45.5062133,15.7726471 45.9068464,17.7463384 45.9068464,20.230919 L45.9068464,29.8140931 C45.9068464,31.9937412 46.5982206,32.7546167 47.4475192,32.7546167 Z M66.3708313,30.2672343 L67.0662082,28.8968579 L68.1098193,29.4015611 C67.3645907,31.5320852 66.766734,33.6123938 66.1197533,35.4372578 L50.9244401,35.4372578 L50.6300602,34.8841584 C54.4515401,28.03919 57.7304732,21.34596 61.010498,14.8077434 L57.9287885,14.8077434 C54.8998417,14.8077434 53.8573222,15.7727562 52.7161909,18.3064607 L52.0695741,19.6688318 L51.0259629,19.3147754 C51.4749923,17.7464476 52.170733,14.4998999 52.5666357,12.3224351 L53.5603952,12.3224351 C53.9097211,13.0814912 54.4031439,13.3860597 55.9962156,13.3860597 L66.6703055,13.3860597 L66.9162891,13.8900351 C63.3910085,20.7844914 60.3627895,26.8161854 56.8364172,34.0170296 L60.1641104,34.0170296 C63.3422484,34.0170296 64.8825574,33.2576097 66.3708313,30.2672343 Z M77.3437767,30.4179175 C77.3437767,33.9180904 77.590852,34.1164056 80.2278988,34.4217019 L80.2278988,35.4372942 L69.4963157,35.4372942 L69.4963157,34.4206102 C72.180667,34.1164056 72.3789822,33.818023 72.3789822,30.4171897 L72.3789822,6.33444317 C72.3789822,3.19669596 72.3265833,2.94161527 69.5971108,2.5857395 L69.5971108,1.72770773 C71.9783491,1.47117152 75.0600586,0.762694904 77.3437767,-6.03961325e-14 L77.3437767,30.4179175 Z M89.6453978,30.3674472 C89.6453978,33.8690756 89.9437804,34.1165147 92.5244255,34.421811 L92.5244255,35.4374033 L81.8980041,35.4374033 L81.8980041,34.421811 C84.3800375,34.1165147 84.6791478,33.9181995 84.6791478,30.3674472 L84.6791478,19.3724142 C84.6791478,16.2772411 84.4287976,16.127322 82.1963867,15.6157051 L82.1963867,14.7558539 C84.3800375,14.3534014 87.0134454,13.6918654 89.6453978,12.7756127 L89.6453978,30.3674472 Z M119.604097,32.6455979 L120,33.7601659 L116.377927,35.5362699 C115.68255,35.84193 115.083966,36.0482506 114.590179,36.0482506 C111.460801,36.0482506 109.576624,34.2233866 109.576624,29.9630661 L109.576624,15.1622 L101.856886,15.1622 L101.856886,28.5428379 C101.856886,32.4491021 103.194149,33.2587377 104.488838,33.2587377 C105.581209,33.2587377 106.324254,32.9530775 106.922475,32.6455979 L107.320197,33.7601659 L103.697033,35.5362699 C103.000564,35.84193 102.402707,36.0482506 101.905282,36.0482506 C98.7791787,36.0482506 96.8909994,34.2233866 96.8909994,29.9630661 L96.8909994,15.1622 L94.1084002,15.1622 L93.9592089,14.7557448 L95.1520114,13.3860961 L96.8909994,13.3860961 L96.8909994,10.7719739 C96.8909994,8.57485945 96.9252042,6.18379637 96.5991667,5.28610156 C96.010407,3.66355548 94.5901788,2.99947237 92.9767298,3.10063133 C92.8737514,3.10681731 92.767862,3.13156123 92.6659753,3.14793588 C91.9331186,3.26656114 91.2202755,3.48052326 90.7628768,4.10457944 C90.394993,4.60709932 90.2308826,5.23661372 90.0904245,5.83337882 C89.9437804,6.45488783 89.9099394,7.04328366 89.7960446,7.66988701 C89.7880392,7.71537216 89.7731201,7.76413223 89.7589287,7.81216455 C89.5624329,8.98422575 88.5464767,9.87828175 87.3187417,9.87828175 C86.1808853,9.87828175 85.2882848,9.11122028 85.018285,8.06688136 C85.0161017,8.05742045 85.012099,8.05087059 85.0099158,8.04140968 C85.0073686,8.03012936 85.0070047,8.01994069 85.0048214,8.00902425 C84.9589724,7.81398395 84.9324091,7.61093827 84.9324091,7.40061496 C84.9324091,7.29654495 84.9433255,7.19101941 84.9593363,7.08549388 C85.0204683,6.55459127 85.2220585,6.15832469 85.3748886,5.9534596 C86.4334188,4.53577861 91.007405,1.08436585 93.9606644,1.08436585 C95.2000437,1.08436585 97.7268344,1.36018776 99.9617925,3.62134527 C101.426778,5.1037971 101.852883,7.68116733 101.852883,11.0492513 L101.852883,13.3860961 L101.856886,13.3860961 L109.576624,13.3860961 L109.576624,9.68833579 L113.943198,6.28604698 L114.541419,6.44324364 L114.541419,13.3860961 L119.256955,13.3860961 C119.652857,13.9482925 119.556429,14.9078471 118.958572,15.1622 L114.541419,15.1622 L114.541419,28.5428379 C114.541419,32.4491021 115.880865,33.2587377 117.170824,33.2587377 C118.262104,33.2587377 119.010971,32.9530775 119.604097,32.6455979 Z" id="hz-logo"></path>
            </g>
        </g>
    </g>
</svg>